<?xml version="1.0" encoding="UTF-8"?>
<!-- Generator: Adobe Illustrator 18.0.0, SVG Export Plug-In . SVG Version: 6.00 Build 0)  -->
<!DOCTYPE svg PUBLIC "-//W3C//DTD SVG 1.1//EN" "http://www.w3.org/Graphics/SVG/1.1/DTD/svg11.dtd">
<svg version="1.1" id="Слой_1" xmlns="http://www.w3.org/2000/svg" xmlns:xlink="http://www.w3.org/1999/xlink" x="0px" y="0px" viewBox="0 0 40 40" enable-background="new 0 0 40 40" xml:space="preserve">
<path fill="#82909F" d="M1.3,6l3.2-0.5l8.1,21.2c0.2,0.5,0.7,0.8,1.2,0.7l22-2.7c0.5-0.1,0.9-0.4,1-0.9l3-13.7c0.1-0.3,0-0.7-0.2-1  c-0.2-0.3-0.5-0.4-0.9-0.4H9.9c-0.6,0-1.1,0.5-1.1,1.1c0,0.6,0.5,1.1,1.1,1.1h27.4l-2.6,11.5L14.4,25L6.3,3.8C6.1,3.3,5.6,3,5.1,3.1  L1,3.7C0.3,3.8-0.1,4.4,0,5C0.1,5.7,0.7,6.1,1.3,6L1.3,6L1.3,6z" stroke-width="1" stroke="#82909F"/>
<path fill-rule="evenodd" clip-rule="evenodd" fill="#82909F" stroke-width="1" stroke="#82909F" d="M12.4,32c1.4,0,2.5,1.1,2.5,2.5c0,1.4-1.1,2.5-2.5,2.5  c-1.4,0-2.5-1.1-2.5-2.5C9.9,33.1,11,32,12.4,32L12.4,32z"/>
<path fill-rule="evenodd" clip-rule="evenodd" fill="#82909F" stroke-width="1" stroke="#82909F" d="M33.9,32c1.4,0,2.5,1.1,2.5,2.5c0,1.4-1.1,2.5-2.5,2.5  c-1.4,0-2.5-1.1-2.5-2.5C31.5,33.1,32.6,32,33.9,32L33.9,32z"/>
</svg>