<?xml version="1.0" encoding="UTF-8"?>
<!DOCTYPE svg PUBLIC "-//W3C//DTD SVG 1.1//EN" "http://www.w3.org/Graphics/SVG/1.1/DTD/svg11.dtd">
<!-- Creator: CorelDRAW 2017 -->
<svg xmlns="http://www.w3.org/2000/svg" xml:space="preserve" width="777px" height="199px" version="1.1" style="shape-rendering:geometricPrecision; text-rendering:geometricPrecision; image-rendering:optimizeQuality; fill-rule:evenodd; clip-rule:evenodd"
viewBox="0 0 803.34 205.22"
 xmlns:xlink="http://www.w3.org/1999/xlink">
 <defs>
  <style type="text/css">
   <![CDATA[
    .fil1 {fill:#F95252}
    .fil2 {fill:#82909F;fill-rule:nonzero}
    .fil0 {fill:url(#id0);fill-rule:nonzero}
   ]]>
  </style>
  <linearGradient id="id0" gradientUnits="userSpaceOnUse" x1="406.63" y1="163.22" x2="406.62" y2="29.13">
   <stop offset="0" style="stop-opacity:1; stop-color:#1D6794"/>
   <stop offset="1" style="stop-opacity:1; stop-color:#39ABC3"/>
  </linearGradient>
 </defs>
 <g id="Layer_x0020_1">
  <metadata id="CorelCorpID_0Corel-Layer"/>
  <path class="fil0" d="M1.93 34.87l38.25 0 19.63 54.58 19.63 -54.58 37.54 0 0 102.44 -29.23 0 0 -63.76 -25.07 63.76 -9.74 0 -24.79 -63.76 0 63.76 -26.22 0 0 -102.44zm132.24 102.44l0 -74.94 25.51 0 0 45.57 23.5 -45.57 25.5 0 0 74.94 -25.5 0 0 -45.56 -23.5 45.56 -25.51 0zm90.41 -74.94l25.65 0 0 11.18c5.35,-8.79 13.13,-13.18 23.35,-13.18 9.17,0 16.62,3.25 22.35,9.74 6.21,6.97 9.32,16.67 9.32,29.09l0 1.14c0,12.42 -3.11,22.07 -9.32,28.95 -5.73,6.49 -13.22,9.74 -22.49,9.74 -11.08,0 -18.82,-4.25 -23.21,-12.75l0 36.1 -25.65 0 0 -100.01zm39.83 57.03c9.84,0 14.76,-6.35 14.76,-19.06l0 -1.14c0,-6.5 -1.29,-11.37 -3.87,-14.62 -2.58,-3.24 -6.21,-4.87 -10.89,-4.87 -4.68,0 -8.33,1.67 -10.96,5.02 -2.62,3.34 -3.94,8.12 -3.94,14.32l0 1.15c0,6.3 1.29,11.08 3.87,14.33 2.58,3.25 6.26,4.87 11.03,4.87zm82.82 -84.53l29.51 0 0 40.54 30.81 -40.54 30.66 0 -37.54 47.56 39.55 54.88 -33.96 0 -29.52 -42.84 0 42.84 -29.51 0 0 -102.44zm132.39 85.1c9.84,0 14.75,-6.54 14.75,-19.63l0 -1.14c0,-13.09 -4.91,-19.63 -14.75,-19.63 -9.94,0 -14.9,6.45 -14.9,19.34l0 1.15c0,13.27 4.96,19.91 14.9,19.91zm29.08 8.74c-7.64,6.88 -17.38,10.32 -29.23,10.32 -11.84,0 -21.54,-3.34 -29.08,-10.03 -7.93,-6.88 -11.89,-16.29 -11.89,-28.23l0 -1.14c0,-11.75 3.96,-21.3 11.89,-28.66 7.54,-7.07 17.29,-10.6 29.23,-10.6 11.94,0 21.63,3.44 29.08,10.31 7.84,7.27 11.75,16.67 11.75,28.23l0 1.15c0,11.84 -3.91,21.39 -11.75,28.65zm22.93 -66.34l25.64 0 0 11.18c5.35,-8.79 13.14,-13.18 23.36,-13.18 9.17,0 16.62,3.25 22.35,9.74 6.21,6.97 9.31,16.67 9.31,29.09l0 1.14c0,12.42 -3.1,22.07 -9.31,28.95 -5.73,6.49 -13.23,9.74 -22.5,9.74 -11.08,0 -18.81,-4.25 -23.21,-12.75l0 36.1 -25.64 0 0 -100.01zm39.83 57.03c9.84,0 14.76,-6.35 14.76,-19.06l0 -1.14c0,-6.5 -1.29,-11.37 -3.87,-14.62 -2.58,-3.24 -6.21,-4.87 -10.89,-4.87 -4.68,0 -8.34,1.67 -10.96,5.02 -2.63,3.34 -3.94,8.12 -3.94,14.32l0 1.15c0,6.3 1.29,11.08 3.87,14.33 2.58,3.25 6.25,4.87 11.03,4.87zm71.92 -30.23l0 48.14 -20.05 0 0 -74.94 32.81 0 14.61 37.4 14.9 -37.4 30.81 0 0 74.94 -25.22 0 0 -48.14 -19.34 48.14 -9.6 0 -18.92 -48.14zm110.04 49.86c-7.26,0 -13.13,-1.77 -17.62,-5.3 -5.16,-3.92 -7.74,-9.65 -7.74,-17.2 0,-16.33 13.28,-24.5 39.83,-24.5l7.17 0 0 -1.72c0,-4.01 -0.7,-6.99 -2.08,-8.95 -1.39,-1.96 -3.99,-2.94 -7.81,-2.94 -6.02,0 -9.41,2.96 -10.17,8.89l-24.07 0c0.57,-8.79 4.15,-15.57 10.74,-20.35 6.12,-4.39 14.47,-6.59 25.08,-6.59 10.69,0 18.91,2.24 24.64,6.73 6.11,4.78 9.17,11.99 9.17,21.64l0 48.57 -24.93 0 0 -8.74c-4.49,6.97 -11.89,10.46 -22.21,10.46zm8.89 -17.34c3.72,0 6.78,-0.98 9.16,-2.94 2.39,-1.95 3.59,-4.51 3.59,-7.66l0 -4.59 -6.74 0c-5.25,0 -9.05,0.6 -11.39,1.8 -2.34,1.19 -3.51,3.32 -3.51,6.37 0,4.68 2.96,7.02 8.89,7.02z"/>
  <path class="fil1" d="M331.7 38.81c9.18,5.98 6.24,13.01 -0.94,15.64 -4.07,1.49 -8.03,0.52 -12.14,2.97 -3.74,2.23 -5.83,5.8 -9.07,8.81 -4.45,4.12 -10.63,5.4 -12.24,-0.67 -6.24,-23.53 13.59,-40.32 34.39,-26.75l0 0 0 0zm-3.89 -27.71c4.51,-0.01 8.21,4.96 8.26,11.11 0.07,6.14 -3.55,11.13 -8.05,11.13 -4.52,0.01 -8.23,-4.96 -8.28,-11.11 -0.06,-6.14 3.55,-11.13 8.07,-11.13zm-23.22 -10.97c4.8,-1 9.88,3.79 11.33,10.71 1.45,6.92 -1.26,13.36 -6.05,14.36 -4.81,1.01 -9.89,-3.78 -11.34,-10.7 -1.45,-6.93 1.26,-13.36 6.06,-14.37l0 0zm-24.98 13.06c3.84,-3.06 10.53,-1.05 14.94,4.48 4.41,5.52 4.87,12.49 1.04,15.55 -3.84,3.06 -10.53,1.06 -14.94,-4.48 -4.41,-5.52 -4.87,-12.49 -1.04,-15.55l0 0zm-5.51 24.79c2.93,-3.44 9.32,-2.81 14.28,1.41 4.95,4.21 6.59,10.42 3.68,13.86 -2.93,3.43 -9.32,2.8 -14.28,-1.42 -4.95,-4.21 -6.61,-10.42 -3.68,-13.85z"/>
  <path class="fil2" d="M18.18 199.88c3.36,0 6.04,-1.18 8.02,-3.52 1.98,-2.35 2.97,-5.47 2.97,-9.37l0 -0.4c0,-3.76 -0.99,-6.83 -2.97,-9.21 -1.98,-2.39 -4.69,-3.58 -8.12,-3.58 -3.46,0 -6.18,1.17 -8.16,3.5 -1.99,2.33 -2.98,5.44 -2.98,9.34l0 0.4c0,3.86 1.05,6.97 3.15,9.32 2.1,2.34 4.8,3.52 8.09,3.52zm-0.1 5.34c-5.39,0 -9.76,-1.71 -13.08,-5.14 -3.33,-3.43 -5,-7.76 -5,-12.99l0 -0.4c0,-5.26 1.69,-9.61 5.07,-13.04 3.38,-3.43 7.72,-5.14 13.01,-5.14 5.3,0 9.62,1.69 12.96,5.07 3.35,3.38 5.02,7.7 5.02,12.96l0 0.4c0,5.26 -1.65,9.62 -4.97,13.09 -3.31,3.46 -7.65,5.19 -13.01,5.19zm87.2 -16.93l11.99 0 0 4.99 -11.99 0 0 -4.99zm-49.37 -19.28l7.94 0 15.04 25.82 0 -25.82 6.04 0 0 35.71 -6.89 0 -16.09 -27.37 0 27.37 -6.04 0 0 -35.71zm81.75 0l6.65 0 0 30.42 15.23 0 0 5.29 -21.88 0 0 -35.71zm41.18 0l6.69 0 0 35.71 -6.69 0 0 -35.71zm28.59 0l7.94 0 15.04 25.82 0 -25.82 6.04 0 0 35.71 -6.89 0 -16.09 -27.37 0 27.37 -6.04 0 0 -35.71zm50.67 0l22.32 0 0 5.24 -15.68 0 0 9.79 12.59 0 0 5 -12.59 0 0 10.44 16.53 0 0 5.24 -23.17 0 0 -35.71zm54.71 0l21.63 0 0 5.34 -14.94 0 0 30.37 -6.69 0 0 -35.71zm40.67 35.71l0 -35.71 6.7 0 0 26.77 16.58 -26.77 6.69 0 0 35.71 -6.69 0 0 -26.92 -16.58 26.92 -6.7 0zm73.55 -30.37l-15.49 0 0 30.37 -6.69 0 0 -35.71 28.87 0 0 35.71 -6.69 0 0 -30.37zm28.09 -5.34l22.32 0 0 5.24 -15.68 0 0 9.79 12.59 0 0 5 -12.59 0 0 10.44 16.53 0 0 5.24 -23.17 0 0 -35.71zm42.42 0l11.49 0c4.13,0 7.37,0.93 9.71,2.8 2.35,1.86 3.53,4.61 3.53,8.24l0 0.2c0,3.63 -1.19,6.35 -3.55,8.16 -2.37,1.82 -5.55,2.73 -9.54,2.73l-5 0 0 13.58 -6.64 0 0 -35.71zm11.49 17.33c4.49,0 6.74,-2.03 6.74,-6.09l0 -0.2c0,-3.93 -2.25,-5.9 -6.74,-5.9l-4.85 0 0 12.19 4.85 0zm32.18 -17.33l8.89 0 9.4 24.37 9.19 -24.37 8.79 0 0 35.71 -6.65 0 0 -26.97 -10.64 26.97 -2.14 0 -10.84 -26.97 0 26.97 -6 0 0 -35.71zm66.9 0l8.7 0 11.78 35.71 -6.89 0 -2.85 -8.84 -13.63 0 -2.8 8.84 -6.24 0 11.93 -35.71zm-1.34 22.03l10.53 0 -5.24 -16.59 -5.29 16.59zm40.52 -22.03l11.49 0c4.13,0 7.37,0.93 9.71,2.8 2.35,1.86 3.53,4.61 3.53,8.24l0 0.2c0,3.63 -1.19,6.35 -3.55,8.16 -2.36,1.82 -5.55,2.73 -9.54,2.73l-5 0 0 13.58 -6.64 0 0 -35.71zm11.49 17.33c4.5,0 6.74,-2.03 6.74,-6.09l0 -0.2c0,-3.93 -2.24,-5.9 -6.74,-5.9l-4.85 0 0 12.19 4.85 0zm32.18 -17.33l6.65 0 0 16.18 13.68 -16.23 7.15 0 -14.79 17.08 15.54 18.68 -7.85 0 -13.73 -16.68 0 16.68 -6.65 0 0 -35.71zm46.18 0l22.32 0 0 5.24 -15.68 0 0 9.79 12.59 0 0 5 -12.59 0 0 10.44 16.53 0 0 5.24 -23.17 0 0 -35.71zm49.56 5.24l-9.94 0 0 -5.24 26.58 0 0 5.24 -9.94 0 0 30.47 -6.7 0 0 -30.47z"/>
 </g>
</svg>
